<?xml version="1.0" encoding="utf-8"?>

<!-- License Agreement at http://iconmonstr.com/license/ -->

<!DOCTYPE svg PUBLIC "-//W3C//DTD SVG 1.1//EN" "http://www.w3.org/Graphics/SVG/1.1/DTD/svg11.dtd">
<svg version="1.1" xmlns="http://www.w3.org/2000/svg" xmlns:xlink="http://www.w3.org/1999/xlink" x="0px" y="0px"
	 width="512px" height="512px" viewBox="0 0 512 512" style="fill:#3b3b3b;enable-background:new 0 0 512 512;" xml:space="preserve">
<path id="code-fork-icon" d="M410.5,101.5c0-28.449-23.051-51.5-51.5-51.5s-51.5,23.051-51.5,51.5
	c0,22.716,14.786,41.76,35.188,48.617c2.884,73.729-34.702,81.785-85.792,92.547c-29.346,6.186-62.514,13.311-86.73,35.801V149.848
	c19.958-7.091,34.333-25.951,34.333-48.348c0-28.449-23.051-51.5-51.5-51.5s-51.5,23.051-51.5,51.5
	c0,22.397,14.375,41.257,34.333,48.348v212.304c-19.958,7.091-34.333,25.951-34.333,48.348c0,28.449,23.051,51.5,51.5,51.5
	s51.5-23.051,51.5-51.5c0-22.229-14.149-40.988-33.864-48.215c4.635-67.324,44.124-75.656,93.334-86.033
	c52.146-10.981,116.287-24.745,112.934-126.638C396.484,142.321,410.5,123.621,410.5,101.5z M122.104,101.5
	c0-17.041,13.855-30.896,30.896-30.896s30.896,13.855,30.896,30.896S170.041,132.396,153,132.396S122.104,118.541,122.104,101.5z
	 M183.896,410.5c0,17.033-13.855,30.896-30.896,30.896s-30.896-13.863-30.896-30.896s13.855-30.896,30.896-30.896
	S183.896,393.467,183.896,410.5z M359,132.396c-17.033,0-30.896-13.855-30.896-30.896S341.967,70.604,359,70.604
	s30.896,13.855,30.896,30.896S376.033,132.396,359,132.396z"/>
</svg>
